<svg id="Layer_1" data-name="Layer 1" xmlns="http://www.w3.org/2000/svg" viewBox="0 0 1000 1000"><title>default-menu-icon</title><path class="cls-1" d="M451.29,615.2V596q0-41.6,12.8-68.44t47.64-56.72q48.36-40.87,61-61.51t12.62-49.77q0-36.27-23.29-56t-67-19.74a227.93,227.93,0,0,0-54.75,6.58q-26.67,6.59-61.16,24l-21-48q67.2-35.2,140.45-35.2,67.91,0,105.6,33.42t37.69,94.22q0,26-6.94,45.69a134.34,134.34,0,0,1-20.44,37.34q-13.51,17.6-58.31,56.71-35.92,30.59-47.47,50.84t-11.55,54.05V615.2ZM433.87,720.8q0-48.34,42.66-48.36,20.63,0,31.83,12.45t11.2,35.91q0,22.76-11.38,35.38T476.53,768.8q-18.48,0-30.57-11.2T433.87,720.8Z"/><path class="cls-1" d="M810.67,129.33a60.3,60.3,0,0,1,60,60V810.67a60.3,60.3,0,0,1-60,60H189.33a60.3,60.3,0,0,1-60-60V189.33a60.3,60.3,0,0,1,60-60H810.67m0-40H189.33c-55,0-100,45-100,100V810.67c0,55,45,100,100,100H810.67c55,0,100-45,100-100V189.33c0-55-45-100-100-100Z"/></svg>