<svg xmlns="http://www.w3.org/2000/svg" viewBox="0 0 1000 1000"><title>directory</title><g id="Layer_2" data-name="Layer 2"><path class="cls-1" d="M879.42,374a204.84,204.84,0,0,0,50.16-134.59c0-113.58-92.07-205.65-205.65-205.65A205.45,205.45,0,0,0,553.8,123.88a222.9,222.9,0,0,0-107.6,0A205.45,205.45,0,0,0,276.07,33.8c-113.58,0-205.65,92.07-205.65,205.65A204.84,204.84,0,0,0,120.58,374c-58.32,46.14-95.9,117.49-95.9,197.18v211.4a40.12,40.12,0,0,0,40,40H229.45V926.2a40.12,40.12,0,0,0,40,40h461.1a40.12,40.12,0,0,0,40-40V822.62H935.32a40.12,40.12,0,0,0,40-40V571.22C975.32,491.53,937.74,420.18,879.42,374ZM606.8,122.32A165.65,165.65,0,0,1,845.85,351.59c-1.56,1.69-3.16,3.36-4.79,5a167,167,0,0,1-28.49,22.87,164.53,164.53,0,0,1-88.64,25.65q-6.36,0-12.63-.47a220.07,220.07,0,0,0,9-44.76q1-10.5,1-21.27,0-9.48-.79-18.75a221.42,221.42,0,0,0-127.4-182.07A167.2,167.2,0,0,1,606.8,122.32ZM466,160.45a184.49,184.49,0,0,1,68,0,179.22,179.22,0,0,1,38.42,11.83,181.79,181.79,0,0,1,108.29,151.3q.62,7.46.61,15a184.54,184.54,0,0,1-1.83,25.95,179.41,179.41,0,0,1-24.71,68.63,182.51,182.51,0,0,1-20.84,27.64q-2.79,3-5.73,6a183,183,0,0,1-26.64,22.05,179.12,179.12,0,0,1-79.68,29.75c-.92.12-1.84.22-2.77.31a183.29,183.29,0,0,1-38.24,0c-.93-.09-1.85-.19-2.77-.31a179.12,179.12,0,0,1-79.68-29.75,183,183,0,0,1-26.64-22.05q-2.94-2.94-5.73-6a182.51,182.51,0,0,1-20.84-27.64,179.41,179.41,0,0,1-24.71-68.63,184.54,184.54,0,0,1-1.83-25.95q0-7.56.61-15A181.05,181.05,0,0,1,466,160.45Zm-355.58,79A165.65,165.65,0,0,1,393.2,122.32a167.2,167.2,0,0,1,13.67,15.46,221.42,221.42,0,0,0-127.4,182.07q-.8,9.27-.79,18.75,0,10.75,1,21.27a220.07,220.07,0,0,0,9,44.76q-6.27.47-12.63.47a164.53,164.53,0,0,1-88.64-25.65,167,167,0,0,1-28.49-22.87c-1.63-1.63-3.23-3.3-4.79-5A164.47,164.47,0,0,1,110.42,239.45ZM64.75,782.62l-.07-.07V571.22a208.49,208.49,0,0,1,16.65-82A212.05,212.05,0,0,1,126.81,422,216.06,216.06,0,0,1,150,401.89,204.7,204.7,0,0,0,276.07,445.1a207.15,207.15,0,0,0,28.79-2,221.15,221.15,0,0,0,27.8,40.35C269.9,533.1,229.45,609.88,229.45,695.65v87Zm665.8,143.51-.08.07H269.53l-.08-.07V695.65a227.26,227.26,0,0,1,18.17-89.4,231.14,231.14,0,0,1,49.59-73.38,234.27,234.27,0,0,1,24.58-21.4,220.21,220.21,0,0,0,111.07,46.8q7.08.87,14.29,1.28,6.38.38,12.85.37t12.85-.37q7.21-.4,14.29-1.28a220.21,220.21,0,0,0,111.07-46.8,234.27,234.27,0,0,1,24.58,21.4,231.14,231.14,0,0,1,49.59,73.38,227.26,227.26,0,0,1,18.17,89.4V926.13ZM935.32,782.55l-.07.07H770.55v-87c0-85.77-40.45-162.55-103.21-212.2a221.15,221.15,0,0,0,27.8-40.35,207.15,207.15,0,0,0,28.79,2,204.7,204.7,0,0,0,126.12-43.21A216.06,216.06,0,0,1,873.19,422a212.05,212.05,0,0,1,45.48,67.29,208.49,208.49,0,0,1,16.65,82Z"/></g></svg>