<svg xmlns="http://www.w3.org/2000/svg" viewBox="0 0 1000 1000"><title>publications</title><g id="Layer_4" data-name="Layer 4"><path class="cls-1" d="M634.76,59.84c-15.55-15.55-46.28-28.28-68.28-28.28h-393a40.12,40.12,0,0,0-40,40V928.44a40.12,40.12,0,0,0,40,40h653a40.12,40.12,0,0,0,40-40V331.6c0-22-12.73-52.73-28.28-68.28ZM770,251.61c15.55,15.55,10.28,28.28-11.72,28.28h-100a40.12,40.12,0,0,1-40-40v-100c0-22,12.73-27.27,28.28-11.72Zm56.56,636.83a40.12,40.12,0,0,1-40,40h-573a40.12,40.12,0,0,1-40-40V111.56a40.12,40.12,0,0,1,40-40H538.19a40.12,40.12,0,0,1,40,40V279.89a40.12,40.12,0,0,0,40,40H786.52a40.12,40.12,0,0,1,40,40Z"/><rect class="cls-1" x="230.51" y="391" width="538.97" height="40"/><rect class="cls-1" x="230.51" y="500.9" width="480.9" height="40"/><rect class="cls-1" x="230.51" y="610.81" width="538.97" height="40"/><rect class="cls-1" x="230.51" y="720.71" width="480.9" height="40"/><rect class="cls-1" x="230.51" y="830.62" width="325.96" height="40"/></g></svg>